<svg xmlns="http://www.w3.org/2000/svg" width="60" height="60" viewBox="0 0 60 60"><defs><style>.a{fill:#c51010;}.b{fill:#fff;}</style></defs><path class="a" d="M0,0H60V60H0Z"/><path class="b" d="M-264.186,506.038a8.824,8.824,0,0,0-2.978-1.825,8.447,8.447,0,0,0-1.222-.347,8.942,8.942,0,0,0-2.109-2.981,8.832,8.832,0,0,0-3.723-2.065,8.7,8.7,0,0,0-1.658-.275v-6.025h-3.158v6.37a8.6,8.6,0,0,0-1.5.6,8.65,8.65,0,0,0-1.658,1.1v-8.075h-3.158v14.842a8.847,8.847,0,0,0,4.487,7.693,8.8,8.8,0,0,0,2.548.963,8.572,8.572,0,0,0,.436.868,8.874,8.874,0,0,0,3.338,3.332,8.8,8.8,0,0,0,5.1,1.115,8.877,8.877,0,0,0,8.076-8.219A8.823,8.823,0,0,0-264.186,506.038Zm-17.874,2.539a5.518,5.518,0,0,1-.133-1.216,5.668,5.668,0,0,1,1.658-4.007,5.669,5.669,0,0,1,1.5-1.083,5.654,5.654,0,0,1,1.658-.527,5.617,5.617,0,0,1,.868-.066,5.948,5.948,0,0,1,.632.035,5.624,5.624,0,0,1,1.658.448,5.684,5.684,0,0,1,1.838,1.3c.123.133.243.268.354.414a8.624,8.624,0,0,0-2.192.78,8.646,8.646,0,0,0-1.658,1.1v-2.766a5.416,5.416,0,0,0-1.5.5h0a2.979,2.979,0,0,0-1.658,2.67v6.292A5.689,5.689,0,0,1-282.06,508.577Zm9.4,9.066-.641-.363a5.666,5.666,0,0,1-1.377-1.269,8.413,8.413,0,0,0,.84-.221,8.853,8.853,0,0,0,6.133-7.677,5.571,5.571,0,0,0-.834-.063,5.6,5.6,0,0,0-.654.038l-.123.014a2.5,2.5,0,0,0-1.984,1.522,5.708,5.708,0,0,1-2.784,2.875c-.044.022-.092.044-.139.063a5.6,5.6,0,0,1-1.636.445c-.016-.161-.022-.322-.022-.486a5.668,5.668,0,0,1,1.658-4.007,5.667,5.667,0,0,1,3.373-1.639,5.59,5.59,0,0,1,.654-.038,5.64,5.64,0,0,1,.771.054,5.5,5.5,0,0,1,1.753.54,5.6,5.6,0,0,1,1.595,1.181h0c.022.022.041.044.06.066a5.653,5.653,0,0,1,1.488,4.267,5.709,5.709,0,0,1-4.919,5.212,5.664,5.664,0,0,1-3.21-.514Z" transform="translate(303.351 -477.271)"/></svg>