<svg xmlns="http://www.w3.org/2000/svg" xmlns:xlink="http://www.w3.org/1999/xlink" width="34" height="34" viewBox="0 0 34 34">
  <defs>
    <clipPath id="clip-path">
      <path id="Path_61" data-name="Path 61" d="M16,0A16,16,0,1,1,0,16,16,16,0,0,1,16,0Z" transform="translate(-0.712 -5)" fill="#7e7373" stroke="#7e7373" stroke-width="1"/>
    </clipPath>
  </defs>
  <g id="Group_130" data-name="Group 130" transform="translate(-1230 -13)">
    <g id="Path_60" data-name="Path 60" transform="translate(1230 13)" fill="#fff">
      <path d="M 17 33.5 C 12.59269046783447 33.5 8.449179649353027 31.78370094299316 5.33273983001709 28.66725921630859 C 2.216300010681152 25.55081939697266 0.5 21.40731048583984 0.5 17 C 0.5 12.59269046783447 2.216300010681152 8.449179649353027 5.33273983001709 5.33273983001709 C 8.449179649353027 2.216300010681152 12.59269046783447 0.5 17 0.5 C 21.40731048583984 0.5 25.55081939697266 2.216300010681152 28.66725921630859 5.33273983001709 C 31.78370094299316 8.449179649353027 33.5 12.59269046783447 33.5 17 C 33.5 21.40731048583984 31.78370094299316 25.55081939697266 28.66725921630859 28.66725921630859 C 25.55081939697266 31.78370094299316 21.40731048583984 33.5 17 33.5 Z" stroke="none"/>
      <path d="M 17 1 C 12.72624969482422 1 8.708290100097656 2.664289474487305 5.686290740966797 5.686290740966797 C 2.664289474487305 8.708290100097656 1 12.72624969482422 1 17 C 1 21.27375030517578 2.664289474487305 25.29170989990234 5.686290740966797 28.3137092590332 C 8.708290100097656 31.3357105255127 12.72624969482422 33 17 33 C 21.27375030517578 33 25.29170989990234 31.3357105255127 28.3137092590332 28.3137092590332 C 31.3357105255127 25.29170989990234 33 21.27375030517578 33 17 C 33 12.72624969482422 31.3357105255127 8.708290100097656 28.3137092590332 5.686290740966797 C 25.29170989990234 2.664289474487305 21.27375030517578 1 17 1 M 17 0 C 26.38883972167969 0 34 7.611160278320313 34 17 C 34 26.38883972167969 26.38883972167969 34 17 34 C 7.611160278320313 34 0 26.38883972167969 0 17 C 0 7.611160278320313 7.611160278320313 0 17 0 Z" stroke="none" fill="#fff"/>
    </g>
    <g id="Group_102" data-name="Group 102" transform="translate(1231.712 19)">
      <g id="Mask_Group_2" data-name="Mask Group 2" clip-path="url(#clip-path)">
        <path id="Path_63" data-name="Path 63" d="M24.333,3.039v10.63a3.807,3.807,0,1,0,1.248,2.825h0V8.9L36.518,5.611v5.5a3.807,3.807,0,1,0,1.248,2.838h0V-1Z" transform="translate(-13.862 0.4)" fill="#7e7373"/>
      </g>
    </g>
  </g>
</svg>
